<mxfile host="app.diagrams.net" modified="2023-03-20T08:48:10.826Z" agent="5.0 (Macintosh; Intel Mac OS X 10_15_7) AppleWebKit/537.36 (KHTML, like Gecko) Chrome/108.0.0.0 Safari/537.36" etag="zoitvjAT3bni9v1i40dO" version="20.8.20" type="github" pages="2">
  <diagram name="第 1 页" id="rV-e6TSPrI_B81iBtovS">
    <mxGraphModel dx="1434" dy="1908" grid="1" gridSize="10" guides="1" tooltips="1" connect="1" arrows="1" fold="1" page="1" pageScale="1" pageWidth="827" pageHeight="1169" math="0" shadow="0">
      <root>
        <mxCell id="0" />
        <mxCell id="1" parent="0" />
        <mxCell id="VFwPWBWeS4cVA7GrG9mc-16" style="edgeStyle=orthogonalEdgeStyle;rounded=0;orthogonalLoop=1;jettySize=auto;html=1;exitX=0.5;exitY=1;exitDx=0;exitDy=0;entryX=0.5;entryY=0;entryDx=0;entryDy=0;" edge="1" parent="1" source="VFwPWBWeS4cVA7GrG9mc-1" target="VFwPWBWeS4cVA7GrG9mc-3">
          <mxGeometry relative="1" as="geometry" />
        </mxCell>
        <mxCell id="VFwPWBWeS4cVA7GrG9mc-1" value="采集" style="rounded=0;whiteSpace=wrap;html=1;fillColor=#dae8fc;strokeColor=#6c8ebf;" vertex="1" parent="1">
          <mxGeometry x="370" y="30" width="120" height="60" as="geometry" />
        </mxCell>
        <mxCell id="VFwPWBWeS4cVA7GrG9mc-30" style="edgeStyle=orthogonalEdgeStyle;rounded=0;orthogonalLoop=1;jettySize=auto;html=1;exitX=1;exitY=0.5;exitDx=0;exitDy=0;entryX=0;entryY=0.5;entryDx=0;entryDy=0;" edge="1" parent="1" source="VFwPWBWeS4cVA7GrG9mc-2" target="VFwPWBWeS4cVA7GrG9mc-1">
          <mxGeometry relative="1" as="geometry" />
        </mxCell>
        <mxCell id="VFwPWBWeS4cVA7GrG9mc-2" value="深度镜头" style="ellipse;whiteSpace=wrap;html=1;" vertex="1" parent="1">
          <mxGeometry x="190" y="20" width="120" height="80" as="geometry" />
        </mxCell>
        <mxCell id="VFwPWBWeS4cVA7GrG9mc-17" style="edgeStyle=orthogonalEdgeStyle;rounded=0;orthogonalLoop=1;jettySize=auto;html=1;exitX=0.5;exitY=1;exitDx=0;exitDy=0;" edge="1" parent="1" source="VFwPWBWeS4cVA7GrG9mc-3" target="VFwPWBWeS4cVA7GrG9mc-6">
          <mxGeometry relative="1" as="geometry" />
        </mxCell>
        <mxCell id="VFwPWBWeS4cVA7GrG9mc-31" style="edgeStyle=orthogonalEdgeStyle;rounded=0;orthogonalLoop=1;jettySize=auto;html=1;exitX=1;exitY=0.5;exitDx=0;exitDy=0;entryX=0;entryY=0.5;entryDx=0;entryDy=0;" edge="1" parent="1" source="VFwPWBWeS4cVA7GrG9mc-3" target="VFwPWBWeS4cVA7GrG9mc-5">
          <mxGeometry relative="1" as="geometry" />
        </mxCell>
        <mxCell id="VFwPWBWeS4cVA7GrG9mc-32" style="edgeStyle=orthogonalEdgeStyle;rounded=0;orthogonalLoop=1;jettySize=auto;html=1;exitX=1;exitY=0.5;exitDx=0;exitDy=0;entryX=0;entryY=0.5;entryDx=0;entryDy=0;" edge="1" parent="1" source="VFwPWBWeS4cVA7GrG9mc-3" target="VFwPWBWeS4cVA7GrG9mc-4">
          <mxGeometry relative="1" as="geometry" />
        </mxCell>
        <mxCell id="VFwPWBWeS4cVA7GrG9mc-3" value="网络" style="rounded=0;whiteSpace=wrap;html=1;fillColor=#dae8fc;strokeColor=#6c8ebf;" vertex="1" parent="1">
          <mxGeometry x="370" y="120" width="120" height="60" as="geometry" />
        </mxCell>
        <mxCell id="VFwPWBWeS4cVA7GrG9mc-4" value="无线" style="ellipse;whiteSpace=wrap;html=1;" vertex="1" parent="1">
          <mxGeometry x="530" y="160" width="80" height="40" as="geometry" />
        </mxCell>
        <mxCell id="VFwPWBWeS4cVA7GrG9mc-5" value="有线" style="ellipse;whiteSpace=wrap;html=1;" vertex="1" parent="1">
          <mxGeometry x="530" y="90" width="80" height="50" as="geometry" />
        </mxCell>
        <mxCell id="VFwPWBWeS4cVA7GrG9mc-18" style="edgeStyle=orthogonalEdgeStyle;rounded=0;orthogonalLoop=1;jettySize=auto;html=1;exitX=0.5;exitY=1;exitDx=0;exitDy=0;entryX=0.5;entryY=0;entryDx=0;entryDy=0;" edge="1" parent="1" source="VFwPWBWeS4cVA7GrG9mc-6" target="VFwPWBWeS4cVA7GrG9mc-7">
          <mxGeometry relative="1" as="geometry">
            <Array as="points">
              <mxPoint x="430" y="290" />
              <mxPoint x="340" y="290" />
            </Array>
          </mxGeometry>
        </mxCell>
        <mxCell id="VFwPWBWeS4cVA7GrG9mc-19" style="edgeStyle=orthogonalEdgeStyle;rounded=0;orthogonalLoop=1;jettySize=auto;html=1;exitX=0.5;exitY=1;exitDx=0;exitDy=0;entryX=0.5;entryY=0;entryDx=0;entryDy=0;" edge="1" parent="1" source="VFwPWBWeS4cVA7GrG9mc-6" target="VFwPWBWeS4cVA7GrG9mc-8">
          <mxGeometry relative="1" as="geometry">
            <Array as="points">
              <mxPoint x="430" y="290" />
              <mxPoint x="500" y="290" />
            </Array>
          </mxGeometry>
        </mxCell>
        <mxCell id="VFwPWBWeS4cVA7GrG9mc-33" style="edgeStyle=orthogonalEdgeStyle;rounded=0;orthogonalLoop=1;jettySize=auto;html=1;exitX=0;exitY=0.5;exitDx=0;exitDy=0;entryX=1;entryY=0.5;entryDx=0;entryDy=0;" edge="1" parent="1" source="VFwPWBWeS4cVA7GrG9mc-6" target="VFwPWBWeS4cVA7GrG9mc-11">
          <mxGeometry relative="1" as="geometry" />
        </mxCell>
        <mxCell id="VFwPWBWeS4cVA7GrG9mc-6" value="硬盘" style="rounded=0;whiteSpace=wrap;html=1;fillColor=#dae8fc;strokeColor=#6c8ebf;" vertex="1" parent="1">
          <mxGeometry x="370" y="220" width="120" height="60" as="geometry" />
        </mxCell>
        <mxCell id="VFwPWBWeS4cVA7GrG9mc-20" style="edgeStyle=orthogonalEdgeStyle;rounded=0;orthogonalLoop=1;jettySize=auto;html=1;exitX=0.5;exitY=1;exitDx=0;exitDy=0;entryX=0.5;entryY=0;entryDx=0;entryDy=0;" edge="1" parent="1" source="VFwPWBWeS4cVA7GrG9mc-7" target="VFwPWBWeS4cVA7GrG9mc-14">
          <mxGeometry relative="1" as="geometry" />
        </mxCell>
        <mxCell id="VFwPWBWeS4cVA7GrG9mc-7" value="物理方式寄回" style="rounded=0;whiteSpace=wrap;html=1;fillColor=#dae8fc;strokeColor=#6c8ebf;" vertex="1" parent="1">
          <mxGeometry x="280" y="310" width="120" height="60" as="geometry" />
        </mxCell>
        <mxCell id="VFwPWBWeS4cVA7GrG9mc-21" style="edgeStyle=orthogonalEdgeStyle;rounded=0;orthogonalLoop=1;jettySize=auto;html=1;exitX=0.5;exitY=1;exitDx=0;exitDy=0;" edge="1" parent="1" source="VFwPWBWeS4cVA7GrG9mc-8">
          <mxGeometry relative="1" as="geometry">
            <mxPoint x="420" y="410" as="targetPoint" />
          </mxGeometry>
        </mxCell>
        <mxCell id="VFwPWBWeS4cVA7GrG9mc-26" style="edgeStyle=orthogonalEdgeStyle;rounded=0;orthogonalLoop=1;jettySize=auto;html=1;exitX=1;exitY=0.5;exitDx=0;exitDy=0;entryX=0;entryY=0.5;entryDx=0;entryDy=0;entryPerimeter=0;" edge="1" parent="1" source="VFwPWBWeS4cVA7GrG9mc-8" target="VFwPWBWeS4cVA7GrG9mc-25">
          <mxGeometry relative="1" as="geometry" />
        </mxCell>
        <mxCell id="VFwPWBWeS4cVA7GrG9mc-8" value="网络方式传回" style="rounded=0;whiteSpace=wrap;html=1;fillColor=#f5f5f5;fontColor=#333333;strokeColor=#666666;" vertex="1" parent="1">
          <mxGeometry x="440" y="310" width="120" height="60" as="geometry" />
        </mxCell>
        <mxCell id="VFwPWBWeS4cVA7GrG9mc-28" style="edgeStyle=orthogonalEdgeStyle;rounded=0;orthogonalLoop=1;jettySize=auto;html=1;exitX=0.5;exitY=1;exitDx=0;exitDy=0;entryX=0.5;entryY=0;entryDx=0;entryDy=0;" edge="1" parent="1" source="VFwPWBWeS4cVA7GrG9mc-9" target="VFwPWBWeS4cVA7GrG9mc-15">
          <mxGeometry relative="1" as="geometry" />
        </mxCell>
        <mxCell id="VFwPWBWeS4cVA7GrG9mc-39" style="edgeStyle=orthogonalEdgeStyle;rounded=0;orthogonalLoop=1;jettySize=auto;html=1;exitX=0;exitY=0.5;exitDx=0;exitDy=0;entryX=1;entryY=0.5;entryDx=0;entryDy=0;" edge="1" parent="1" source="VFwPWBWeS4cVA7GrG9mc-9" target="VFwPWBWeS4cVA7GrG9mc-35">
          <mxGeometry relative="1" as="geometry" />
        </mxCell>
        <mxCell id="VFwPWBWeS4cVA7GrG9mc-9" value="数据筛选标注" style="rounded=0;whiteSpace=wrap;html=1;fillColor=#dae8fc;strokeColor=#6c8ebf;" vertex="1" parent="1">
          <mxGeometry x="360" y="490" width="120" height="60" as="geometry" />
        </mxCell>
        <mxCell id="VFwPWBWeS4cVA7GrG9mc-34" style="edgeStyle=orthogonalEdgeStyle;rounded=0;orthogonalLoop=1;jettySize=auto;html=1;exitX=0;exitY=0.5;exitDx=0;exitDy=0;entryX=1;entryY=0.5;entryDx=0;entryDy=0;" edge="1" parent="1" source="VFwPWBWeS4cVA7GrG9mc-11" target="VFwPWBWeS4cVA7GrG9mc-13">
          <mxGeometry relative="1" as="geometry" />
        </mxCell>
        <mxCell id="VFwPWBWeS4cVA7GrG9mc-11" value="容量" style="ellipse;whiteSpace=wrap;html=1;" vertex="1" parent="1">
          <mxGeometry x="210" y="210" width="120" height="80" as="geometry" />
        </mxCell>
        <mxCell id="VFwPWBWeS4cVA7GrG9mc-13" value="够？" style="ellipse;whiteSpace=wrap;html=1;aspect=fixed;" vertex="1" parent="1">
          <mxGeometry x="50" y="210" width="80" height="80" as="geometry" />
        </mxCell>
        <mxCell id="VFwPWBWeS4cVA7GrG9mc-27" style="edgeStyle=orthogonalEdgeStyle;rounded=0;orthogonalLoop=1;jettySize=auto;html=1;exitX=0.5;exitY=1;exitDx=0;exitDy=0;entryX=0.5;entryY=0;entryDx=0;entryDy=0;" edge="1" parent="1" source="VFwPWBWeS4cVA7GrG9mc-14" target="VFwPWBWeS4cVA7GrG9mc-9">
          <mxGeometry relative="1" as="geometry" />
        </mxCell>
        <mxCell id="VFwPWBWeS4cVA7GrG9mc-14" value="Minio" style="rounded=0;whiteSpace=wrap;html=1;fillColor=#dae8fc;strokeColor=#6c8ebf;" vertex="1" parent="1">
          <mxGeometry x="360" y="410" width="120" height="60" as="geometry" />
        </mxCell>
        <mxCell id="VFwPWBWeS4cVA7GrG9mc-15" value="模型训练" style="rounded=0;whiteSpace=wrap;html=1;fillColor=#dae8fc;strokeColor=#6c8ebf;" vertex="1" parent="1">
          <mxGeometry x="360" y="580" width="120" height="60" as="geometry" />
        </mxCell>
        <mxCell id="VFwPWBWeS4cVA7GrG9mc-22" value="" style="endArrow=none;html=1;rounded=0;" edge="1" parent="1">
          <mxGeometry width="50" height="50" relative="1" as="geometry">
            <mxPoint x="460" y="380" as="sourcePoint" />
            <mxPoint x="550" y="290" as="targetPoint" />
          </mxGeometry>
        </mxCell>
        <mxCell id="VFwPWBWeS4cVA7GrG9mc-23" value="" style="endArrow=none;html=1;rounded=0;fillColor=#f5f5f5;strokeColor=#666666;" edge="1" parent="1">
          <mxGeometry width="50" height="50" relative="1" as="geometry">
            <mxPoint x="450" y="300" as="sourcePoint" />
            <mxPoint x="550" y="380" as="targetPoint" />
          </mxGeometry>
        </mxCell>
        <mxCell id="VFwPWBWeS4cVA7GrG9mc-25" value="数据量太大，上传带宽不支持" style="shape=note;whiteSpace=wrap;html=1;backgroundOutline=1;darkOpacity=0.05;" vertex="1" parent="1">
          <mxGeometry x="620" y="290" width="80" height="100" as="geometry" />
        </mxCell>
        <mxCell id="VFwPWBWeS4cVA7GrG9mc-40" style="edgeStyle=orthogonalEdgeStyle;rounded=0;orthogonalLoop=1;jettySize=auto;html=1;exitX=0;exitY=0.5;exitDx=0;exitDy=0;entryX=1;entryY=0.5;entryDx=0;entryDy=0;" edge="1" parent="1" source="VFwPWBWeS4cVA7GrG9mc-35" target="VFwPWBWeS4cVA7GrG9mc-36">
          <mxGeometry relative="1" as="geometry" />
        </mxCell>
        <mxCell id="VFwPWBWeS4cVA7GrG9mc-35" value="标注平台" style="shape=process;whiteSpace=wrap;html=1;backgroundOutline=1;" vertex="1" parent="1">
          <mxGeometry x="200" y="490" width="120" height="60" as="geometry" />
        </mxCell>
        <mxCell id="VFwPWBWeS4cVA7GrG9mc-36" value="总部" style="ellipse;whiteSpace=wrap;html=1;" vertex="1" parent="1">
          <mxGeometry x="80" y="490" width="80" height="60" as="geometry" />
        </mxCell>
        <mxCell id="VFwPWBWeS4cVA7GrG9mc-37" value="&lt;ol&gt;&lt;li&gt;背标bbox&lt;/li&gt;&lt;li&gt;辅助A、B类数据的体重关联&lt;/li&gt;&lt;li&gt;猪只bbox优化&lt;/li&gt;&lt;li&gt;猪只姿态&lt;/li&gt;&lt;/ol&gt;" style="text;strokeColor=none;fillColor=none;html=1;whiteSpace=wrap;verticalAlign=middle;overflow=hidden;" vertex="1" parent="1">
          <mxGeometry x="480" y="480" width="190" height="100" as="geometry" />
        </mxCell>
        <mxCell id="VFwPWBWeS4cVA7GrG9mc-38" value="" style="shape=curlyBracket;whiteSpace=wrap;html=1;rounded=1;labelPosition=left;verticalLabelPosition=middle;align=right;verticalAlign=middle;" vertex="1" parent="1">
          <mxGeometry x="480" y="500" width="20" height="60" as="geometry" />
        </mxCell>
        <mxCell id="VFwPWBWeS4cVA7GrG9mc-42" value="数据采集中数据流流转示意图" style="rounded=0;whiteSpace=wrap;html=1;fillColor=#f5f5f5;fontColor=#333333;strokeColor=#666666;" vertex="1" parent="1">
          <mxGeometry x="159" y="-70" width="510" height="60" as="geometry" />
        </mxCell>
      </root>
    </mxGraphModel>
  </diagram>
  <diagram id="LXsDjhr-gO96y2riIPMh" name="第 2 页">
    <mxGraphModel dx="1434" dy="739" grid="1" gridSize="10" guides="1" tooltips="1" connect="1" arrows="1" fold="1" page="1" pageScale="1" pageWidth="827" pageHeight="1169" math="0" shadow="0">
      <root>
        <mxCell id="0" />
        <mxCell id="1" parent="0" />
        <mxCell id="Hmv5uWUceWD4CSvtE48C-1" value="" style="rounded=0;whiteSpace=wrap;html=1;" vertex="1" parent="1">
          <mxGeometry x="140" y="60" width="220" height="140" as="geometry" />
        </mxCell>
        <mxCell id="Hmv5uWUceWD4CSvtE48C-3" value="" style="line;strokeWidth=2;direction=south;html=1;" vertex="1" parent="1">
          <mxGeometry x="230" y="60" width="10" height="140" as="geometry" />
        </mxCell>
        <mxCell id="Hmv5uWUceWD4CSvtE48C-4" value="" style="rounded=1;whiteSpace=wrap;html=1;strokeWidth=2;fillWeight=4;hachureGap=8;hachureAngle=45;fillColor=#1ba1e2;sketch=1;" vertex="1" parent="1">
          <mxGeometry x="215" y="110" width="40" height="40" as="geometry" />
        </mxCell>
        <mxCell id="Hmv5uWUceWD4CSvtE48C-5" value="" style="rounded=1;whiteSpace=wrap;html=1;strokeWidth=2;fillWeight=4;hachureGap=8;hachureAngle=45;fillColor=#FFCCCC;sketch=1;" vertex="1" parent="1">
          <mxGeometry x="320" y="60" width="40" height="40" as="geometry" />
        </mxCell>
        <mxCell id="Hmv5uWUceWD4CSvtE48C-6" value="A" style="whiteSpace=wrap;html=1;aspect=fixed;" vertex="1" parent="1">
          <mxGeometry x="215" y="110" width="20" height="20" as="geometry" />
        </mxCell>
        <mxCell id="Hmv5uWUceWD4CSvtE48C-7" value="B" style="whiteSpace=wrap;html=1;aspect=fixed;" vertex="1" parent="1">
          <mxGeometry x="320" y="60" width="20" height="20" as="geometry" />
        </mxCell>
        <mxCell id="Hmv5uWUceWD4CSvtE48C-8" value="" style="rounded=1;whiteSpace=wrap;html=1;strokeWidth=2;fillWeight=4;hachureGap=8;hachureAngle=45;fillColor=#1ba1e2;sketch=1;" vertex="1" parent="1">
          <mxGeometry x="394" y="60" width="26" height="20" as="geometry" />
        </mxCell>
        <mxCell id="Hmv5uWUceWD4CSvtE48C-9" value="" style="rounded=1;whiteSpace=wrap;html=1;strokeWidth=2;fillWeight=4;hachureGap=8;hachureAngle=45;fillColor=#FFCCCC;sketch=1;" vertex="1" parent="1">
          <mxGeometry x="394" y="90" width="23" height="20" as="geometry" />
        </mxCell>
        <mxCell id="Hmv5uWUceWD4CSvtE48C-11" value="A：地磅" style="rounded=0;whiteSpace=wrap;html=1;strokeColor=none;" vertex="1" parent="1">
          <mxGeometry x="430" y="60" width="80" height="20" as="geometry" />
        </mxCell>
        <mxCell id="Hmv5uWUceWD4CSvtE48C-12" value="B：食槽" style="rounded=0;whiteSpace=wrap;html=1;strokeColor=none;" vertex="1" parent="1">
          <mxGeometry x="430" y="90" width="80" height="20" as="geometry" />
        </mxCell>
      </root>
    </mxGraphModel>
  </diagram>
</mxfile>
